<mxfile host="app.diagrams.net" agent="Mozilla/5.0 (Windows NT 10.0; Win64; x64) AppleWebKit/537.36 (KHTML, like Gecko) Chrome/131.0.0.0 Safari/537.36" version="24.8.6">
  <diagram name="Page-1" id="9bLtT-MaZLYHo2DuGSPu">
    <mxGraphModel dx="1434" dy="780" grid="1" gridSize="10" guides="1" tooltips="1" connect="1" arrows="1" fold="1" page="1" pageScale="1" pageWidth="827" pageHeight="1169" math="0" shadow="0">
      <root>
        <mxCell id="0" />
        <mxCell id="1" parent="0" />
        <mxCell id="5k9xJVUffgjyR4wzuvEV-82" value="" style="group" vertex="1" connectable="0" parent="1">
          <mxGeometry x="257" y="40" width="570" height="400" as="geometry" />
        </mxCell>
        <mxCell id="5k9xJVUffgjyR4wzuvEV-80" value="" style="rounded=1;whiteSpace=wrap;html=1;" vertex="1" parent="5k9xJVUffgjyR4wzuvEV-82">
          <mxGeometry x="64.69047619047619" y="100" width="505.3095238095238" height="300" as="geometry" />
        </mxCell>
        <mxCell id="5k9xJVUffgjyR4wzuvEV-3" value="Amazon ECR" style="sketch=0;points=[[0,0,0],[0.25,0,0],[0.5,0,0],[0.75,0,0],[1,0,0],[0,1,0],[0.25,1,0],[0.5,1,0],[0.75,1,0],[1,1,0],[0,0.25,0],[0,0.5,0],[0,0.75,0],[1,0.25,0],[1,0.5,0],[1,0.75,0]];outlineConnect=0;fontColor=#232F3E;fillColor=#ED7100;strokeColor=#ffffff;dashed=0;verticalLabelPosition=bottom;verticalAlign=top;align=center;html=1;fontSize=12;fontStyle=0;aspect=fixed;shape=mxgraph.aws4.resourceIcon;resIcon=mxgraph.aws4.ecr;" vertex="1" parent="5k9xJVUffgjyR4wzuvEV-82">
          <mxGeometry x="271.42857142857144" width="65" height="65" as="geometry" />
        </mxCell>
        <mxCell id="5k9xJVUffgjyR4wzuvEV-27" value="" style="edgeStyle=orthogonalEdgeStyle;rounded=0;orthogonalLoop=1;jettySize=auto;html=1;startArrow=none;startFill=0;endArrow=open;endFill=0;strokeWidth=2;strokeColor=#808080;" edge="1" parent="5k9xJVUffgjyR4wzuvEV-82" target="5k9xJVUffgjyR4wzuvEV-68">
          <mxGeometry relative="1" as="geometry">
            <mxPoint x="171.45238095238096" y="234.58333333333334" as="sourcePoint" />
            <mxPoint x="218.5" y="234.58333333333334" as="targetPoint" />
          </mxGeometry>
        </mxCell>
        <mxCell id="5k9xJVUffgjyR4wzuvEV-39" value="Amazon S3" style="outlineConnect=0;fontColor=#232F3E;gradientColor=#60A337;gradientDirection=north;fillColor=#277116;strokeColor=#ffffff;dashed=0;verticalLabelPosition=bottom;verticalAlign=top;align=center;html=1;fontSize=12;fontStyle=0;aspect=fixed;shape=mxgraph.aws4.resourceIcon;resIcon=mxgraph.aws4.s3;labelBackgroundColor=#ffffff;" vertex="1" parent="5k9xJVUffgjyR4wzuvEV-82">
          <mxGeometry x="100.88095238095259" y="201.66666666666669" width="65" height="65" as="geometry" />
        </mxCell>
        <mxCell id="5k9xJVUffgjyR4wzuvEV-70" value="" style="group" vertex="1" connectable="0" parent="5k9xJVUffgjyR4wzuvEV-82">
          <mxGeometry x="444.6904761904762" y="258.33333333333337" width="104.5" height="107.08333333333334" as="geometry" />
        </mxCell>
        <mxCell id="5k9xJVUffgjyR4wzuvEV-9" value="" style="rounded=1;whiteSpace=wrap;html=1;" vertex="1" parent="5k9xJVUffgjyR4wzuvEV-70">
          <mxGeometry y="8.154761904761898" width="104.5" height="98.92857142857143" as="geometry" />
        </mxCell>
        <mxCell id="5k9xJVUffgjyR4wzuvEV-10" value="" style="image;sketch=0;aspect=fixed;html=1;points=[];align=center;fontSize=12;image=img/lib/mscae/Docker.svg;" vertex="1" parent="5k9xJVUffgjyR4wzuvEV-70">
          <mxGeometry x="13.858690476190473" width="26.249276620370374" height="21.524406828703707" as="geometry" />
        </mxCell>
        <mxCell id="5k9xJVUffgjyR4wzuvEV-12" value="Redis Cache" style="image;sketch=0;aspect=fixed;html=1;points=[];align=center;fontSize=12;image=img/lib/mscae/Cache_Redis_Product.svg;" vertex="1" parent="5k9xJVUffgjyR4wzuvEV-70">
          <mxGeometry x="33.30937499999996" y="39.81190476190468" width="31.49913194444445" height="26.459270833333335" as="geometry" />
        </mxCell>
        <mxCell id="5k9xJVUffgjyR4wzuvEV-72" value="" style="group" vertex="1" connectable="0" parent="5k9xJVUffgjyR4wzuvEV-82">
          <mxGeometry x="444.6904761904762" y="108.33333333333334" width="90.47619047619048" height="100" as="geometry" />
        </mxCell>
        <mxCell id="5k9xJVUffgjyR4wzuvEV-8" value="" style="rounded=1;whiteSpace=wrap;html=1;container=0;" vertex="1" parent="5k9xJVUffgjyR4wzuvEV-72">
          <mxGeometry y="4.806730769230771" width="90.47619047619048" height="95.19326923076923" as="geometry" />
        </mxCell>
        <mxCell id="5k9xJVUffgjyR4wzuvEV-1" value="" style="image;sketch=0;aspect=fixed;html=1;points=[];align=center;fontSize=12;image=img/lib/mscae/Docker.svg;container=0;" vertex="1" parent="5k9xJVUffgjyR4wzuvEV-72">
          <mxGeometry x="10.00858585858592" width="19.728535353535356" height="16.177398989898993" as="geometry" />
        </mxCell>
        <mxCell id="5k9xJVUffgjyR4wzuvEV-2" value="MySql" style="sketch=0;outlineConnect=0;fontColor=#232F3E;gradientColor=none;fillColor=#C925D1;strokeColor=none;dashed=0;verticalLabelPosition=bottom;verticalAlign=top;align=center;html=1;fontSize=12;fontStyle=0;aspect=fixed;pointerEvents=1;shape=mxgraph.aws4.rds_mysql_instance;container=0;" vertex="1" parent="5k9xJVUffgjyR4wzuvEV-72">
          <mxGeometry x="18.849206349206316" y="25.641025641025653" width="30.776515151515152" height="30.776515151515152" as="geometry" />
        </mxCell>
        <mxCell id="5k9xJVUffgjyR4wzuvEV-73" value="" style="group" vertex="1" connectable="0" parent="5k9xJVUffgjyR4wzuvEV-82">
          <mxGeometry x="254.6904761904762" y="183.33333333333334" width="99.52380952380952" height="100" as="geometry" />
        </mxCell>
        <mxCell id="5k9xJVUffgjyR4wzuvEV-68" value="" style="rounded=1;whiteSpace=wrap;html=1;" vertex="1" parent="5k9xJVUffgjyR4wzuvEV-73">
          <mxGeometry y="4.409142673093086" width="99.52380952380952" height="95.59085732690693" as="geometry" />
        </mxCell>
        <mxCell id="5k9xJVUffgjyR4wzuvEV-62" value="Spring Batch" style="aspect=fixed;sketch=0;html=1;dashed=0;whitespace=wrap;verticalLabelPosition=bottom;verticalAlign=top;fillColor=#2875E2;strokeColor=#ffffff;points=[[0.005,0.63,0],[0.1,0.2,0],[0.9,0.2,0],[0.5,0,0],[0.995,0.63,0],[0.72,0.99,0],[0.5,1,0],[0.28,0.99,0]];shape=mxgraph.kubernetes.icon2;kubernetesLabel=1;prIcon=job" vertex="1" parent="5k9xJVUffgjyR4wzuvEV-73">
          <mxGeometry x="22.834467120181404" y="27.240518560270544" width="49.6031746031746" height="47.61904761904762" as="geometry" />
        </mxCell>
        <mxCell id="5k9xJVUffgjyR4wzuvEV-69" value="" style="image;sketch=0;aspect=fixed;html=1;points=[];align=center;fontSize=12;image=img/lib/mscae/Docker.svg;" vertex="1" parent="5k9xJVUffgjyR4wzuvEV-73">
          <mxGeometry x="14.215532879818596" width="24.999311067019402" height="20.499435074955908" as="geometry" />
        </mxCell>
        <mxCell id="5k9xJVUffgjyR4wzuvEV-74" value="Amazon EC2" style="sketch=0;points=[[0,0,0],[0.25,0,0],[0.5,0,0],[0.75,0,0],[1,0,0],[0,1,0],[0.25,1,0],[0.5,1,0],[0.75,1,0],[1,1,0],[0,0.25,0],[0,0.5,0],[0,0.75,0],[1,0.25,0],[1,0.5,0],[1,0.75,0]];outlineConnect=0;fontColor=#232F3E;fillColor=#ED7100;strokeColor=#ffffff;dashed=0;verticalLabelPosition=bottom;verticalAlign=top;align=center;html=1;fontSize=12;fontStyle=0;aspect=fixed;shape=mxgraph.aws4.resourceIcon;resIcon=mxgraph.aws4.ec2;" vertex="1" parent="5k9xJVUffgjyR4wzuvEV-82">
          <mxGeometry x="46.595238095238095" y="74.99999999999999" width="65" height="65" as="geometry" />
        </mxCell>
        <mxCell id="5k9xJVUffgjyR4wzuvEV-75" value="" style="endArrow=classic;html=1;rounded=0;exitX=1;exitY=0.5;exitDx=0;exitDy=0;exitPerimeter=0;" edge="1" parent="5k9xJVUffgjyR4wzuvEV-82" target="5k9xJVUffgjyR4wzuvEV-39">
          <mxGeometry width="50" height="50" relative="1" as="geometry">
            <mxPoint y="235.41666666666669" as="sourcePoint" />
            <mxPoint x="62.88095238095238" y="235" as="targetPoint" />
          </mxGeometry>
        </mxCell>
        <mxCell id="5k9xJVUffgjyR4wzuvEV-77" value="" style="edgeStyle=orthogonalEdgeStyle;rounded=0;orthogonalLoop=1;jettySize=auto;html=1;startArrow=none;startFill=0;endArrow=open;endFill=0;strokeWidth=2;strokeColor=#808080;entryX=0;entryY=0.5;entryDx=0;entryDy=0;" edge="1" parent="5k9xJVUffgjyR4wzuvEV-82" source="5k9xJVUffgjyR4wzuvEV-68" target="5k9xJVUffgjyR4wzuvEV-9">
          <mxGeometry relative="1" as="geometry">
            <mxPoint x="272.7857142857143" y="346.3416666666667" as="sourcePoint" />
            <mxPoint x="356.0238095238095" y="347.5916666666667" as="targetPoint" />
          </mxGeometry>
        </mxCell>
        <mxCell id="5k9xJVUffgjyR4wzuvEV-78" value="" style="edgeStyle=orthogonalEdgeStyle;rounded=0;orthogonalLoop=1;jettySize=auto;html=1;startArrow=none;startFill=0;endArrow=open;endFill=0;strokeWidth=2;strokeColor=#808080;entryX=0;entryY=0.5;entryDx=0;entryDy=0;" edge="1" parent="5k9xJVUffgjyR4wzuvEV-82" target="5k9xJVUffgjyR4wzuvEV-8">
          <mxGeometry relative="1" as="geometry">
            <mxPoint x="354.2142857142857" y="235.83333333333334" as="sourcePoint" />
            <mxPoint x="272.7857142857143" y="252.5" as="targetPoint" />
          </mxGeometry>
        </mxCell>
        <mxCell id="5k9xJVUffgjyR4wzuvEV-81" value="" style="endArrow=none;dashed=1;html=1;dashPattern=1 3;strokeWidth=2;rounded=0;exitX=0.5;exitY=0;exitDx=0;exitDy=0;entryX=0.5;entryY=1;entryDx=0;entryDy=0;entryPerimeter=0;" edge="1" parent="5k9xJVUffgjyR4wzuvEV-82" source="5k9xJVUffgjyR4wzuvEV-68" target="5k9xJVUffgjyR4wzuvEV-3">
          <mxGeometry width="50" height="50" relative="1" as="geometry">
            <mxPoint x="200.85714285714286" y="191.66666666666669" as="sourcePoint" />
            <mxPoint x="304.45238095238096" y="123.33333333333334" as="targetPoint" />
          </mxGeometry>
        </mxCell>
        <mxCell id="5k9xJVUffgjyR4wzuvEV-106" value="&lt;h2&gt;Display Trades Grid&lt;/h2&gt;" style="text;strokeColor=none;align=center;fillColor=none;html=1;verticalAlign=middle;whiteSpace=wrap;rounded=0;" vertex="1" parent="1">
          <mxGeometry x="480" y="950" width="277" height="40" as="geometry" />
        </mxCell>
        <mxCell id="5k9xJVUffgjyR4wzuvEV-115" value="&lt;h2&gt;Initial Data Load&lt;/h2&gt;" style="text;strokeColor=none;align=center;fillColor=none;html=1;verticalAlign=middle;whiteSpace=wrap;rounded=0;" vertex="1" parent="1">
          <mxGeometry x="429.74" y="460" width="277" height="40" as="geometry" />
        </mxCell>
        <mxCell id="5k9xJVUffgjyR4wzuvEV-116" value="" style="group" vertex="1" connectable="0" parent="1">
          <mxGeometry x="160" y="585" width="940" height="335" as="geometry" />
        </mxCell>
        <mxCell id="5k9xJVUffgjyR4wzuvEV-85" value="" style="rounded=1;whiteSpace=wrap;html=1;" vertex="1" parent="5k9xJVUffgjyR4wzuvEV-116">
          <mxGeometry x="303.0987272727273" y="93.05555555555556" width="636.9012727272727" height="241.94444444444446" as="geometry" />
        </mxCell>
        <mxCell id="5k9xJVUffgjyR4wzuvEV-98" value="" style="rounded=1;whiteSpace=wrap;html=1;" vertex="1" parent="5k9xJVUffgjyR4wzuvEV-116">
          <mxGeometry x="640.9094978354977" y="174.70480406153575" width="85.04761904761905" height="88.95260334587174" as="geometry" />
        </mxCell>
        <mxCell id="5k9xJVUffgjyR4wzuvEV-14" style="edgeStyle=orthogonalEdgeStyle;rounded=0;orthogonalLoop=1;jettySize=auto;html=1;startArrow=open;startFill=0;endArrow=open;endFill=0;strokeWidth=2;strokeColor=#808080;" edge="1" parent="5k9xJVUffgjyR4wzuvEV-116" source="5k9xJVUffgjyR4wzuvEV-32">
          <mxGeometry relative="1" as="geometry">
            <Array as="points">
              <mxPoint x="128.1818181818182" y="307.8556944444445" />
              <mxPoint x="128.1818181818182" y="228.75847222222228" />
            </Array>
            <mxPoint x="178.60000000000002" y="228.75847222222228" as="targetPoint" />
          </mxGeometry>
        </mxCell>
        <mxCell id="5k9xJVUffgjyR4wzuvEV-16" style="edgeStyle=orthogonalEdgeStyle;rounded=0;orthogonalLoop=1;jettySize=auto;html=1;startArrow=open;startFill=0;endArrow=open;endFill=0;strokeWidth=2;strokeColor=#808080;" edge="1" parent="5k9xJVUffgjyR4wzuvEV-116" source="5k9xJVUffgjyR4wzuvEV-33">
          <mxGeometry relative="1" as="geometry">
            <Array as="points">
              <mxPoint x="129.03636363636366" y="140.35569444444448" />
              <mxPoint x="129.03636363636366" y="214.80013888888894" />
            </Array>
            <mxPoint x="178.60000000000002" y="214.80013888888894" as="targetPoint" />
          </mxGeometry>
        </mxCell>
        <mxCell id="5k9xJVUffgjyR4wzuvEV-32" value="" style="outlineConnect=0;gradientColor=none;fontColor=#545B64;strokeColor=none;fillColor=#879196;dashed=0;verticalLabelPosition=bottom;verticalAlign=top;align=center;html=1;fontSize=12;fontStyle=0;aspect=fixed;shape=mxgraph.aws4.illustration_desktop;pointerEvents=1;labelBackgroundColor=#ffffff;" vertex="1" parent="5k9xJVUffgjyR4wzuvEV-116">
          <mxGeometry y="265.05013888888897" width="61.20254545454546" height="55.69072727272728" as="geometry" />
        </mxCell>
        <mxCell id="5k9xJVUffgjyR4wzuvEV-33" value="" style="outlineConnect=0;gradientColor=none;fontColor=#545B64;strokeColor=none;fillColor=#879196;dashed=0;verticalLabelPosition=bottom;verticalAlign=top;align=center;html=1;fontSize=12;fontStyle=0;aspect=fixed;shape=mxgraph.aws4.illustration_notification;pointerEvents=1;labelBackgroundColor=#ffffff;" vertex="1" parent="5k9xJVUffgjyR4wzuvEV-116">
          <mxGeometry y="84.52236111111115" width="62.42454545454546" height="50.563454545454555" as="geometry" />
        </mxCell>
        <mxCell id="5k9xJVUffgjyR4wzuvEV-47" value="Amazon Route 53" style="sketch=0;points=[[0,0,0],[0.25,0,0],[0.5,0,0],[0.75,0,0],[1,0,0],[0,1,0],[0.25,1,0],[0.5,1,0],[0.75,1,0],[1,1,0],[0,0.25,0],[0,0.5,0],[0,0.75,0],[1,0.25,0],[1,0.5,0],[1,0.75,0]];outlineConnect=0;fontColor=#232F3E;fillColor=#8C4FFF;strokeColor=#ffffff;dashed=0;verticalLabelPosition=bottom;verticalAlign=top;align=center;html=1;fontSize=12;fontStyle=0;aspect=fixed;shape=mxgraph.aws4.resourceIcon;resIcon=mxgraph.aws4.route_53;" vertex="1" parent="5k9xJVUffgjyR4wzuvEV-116">
          <mxGeometry x="179.02727272727276" y="185.4876388888889" width="66.65454545454547" height="66.65454545454547" as="geometry" />
        </mxCell>
        <mxCell id="5k9xJVUffgjyR4wzuvEV-65" value="Spring Boot" style="image;aspect=fixed;html=1;points=[];align=center;fontSize=12;image=img/lib/azure2/compute/Azure_Spring_Cloud.svg;" vertex="1" parent="5k9xJVUffgjyR4wzuvEV-116">
          <mxGeometry x="666.3403636363637" y="203.16819444444437" width="34.18181818181818" height="34.18181818181818" as="geometry" />
        </mxCell>
        <mxCell id="5k9xJVUffgjyR4wzuvEV-71" value="" style="group" vertex="1" connectable="0" parent="5k9xJVUffgjyR4wzuvEV-116">
          <mxGeometry x="324.72727272727275" y="162.79138888888895" width="102.54545454545456" height="108.67958333333335" as="geometry" />
        </mxCell>
        <mxCell id="5k9xJVUffgjyR4wzuvEV-49" value="" style="rounded=1;whiteSpace=wrap;html=1;container=0;" vertex="1" parent="5k9xJVUffgjyR4wzuvEV-71">
          <mxGeometry y="8.578392857142893" width="102.54545454545456" height="100.1011904761905" as="geometry" />
        </mxCell>
        <mxCell id="5k9xJVUffgjyR4wzuvEV-50" value="" style="image;sketch=0;aspect=fixed;html=1;points=[];align=center;fontSize=12;image=img/lib/mscae/Docker.svg;container=0;" vertex="1" parent="5k9xJVUffgjyR4wzuvEV-71">
          <mxGeometry x="13.04036363636363" width="25.509122911720315" height="20.91748078761066" as="geometry" />
        </mxCell>
        <mxCell id="5k9xJVUffgjyR4wzuvEV-53" value="NGINX&amp;nbsp;&lt;div&gt;Reverse Proxy&lt;/div&gt;" style="sketch=0;pointerEvents=1;shadow=0;dashed=0;html=1;strokeColor=none;fillColor=#505050;labelPosition=center;verticalLabelPosition=bottom;verticalAlign=top;outlineConnect=0;align=center;shape=mxgraph.office.servers.reverse_proxy;container=0;" vertex="1" parent="5k9xJVUffgjyR4wzuvEV-71">
          <mxGeometry x="37.493181818181824" y="36.384279100529106" width="26.277272727272727" height="29.474239417989416" as="geometry" />
        </mxCell>
        <mxCell id="5k9xJVUffgjyR4wzuvEV-86" value="Amazon ECR" style="sketch=0;points=[[0,0,0],[0.25,0,0],[0.5,0,0],[0.75,0,0],[1,0,0],[0,1,0],[0.25,1,0],[0.5,1,0],[0.75,1,0],[1,1,0],[0,0.25,0],[0,0.5,0],[0,0.75,0],[1,0.25,0],[1,0.5,0],[1,0.75,0]];outlineConnect=0;fontColor=#232F3E;fillColor=#ED7100;strokeColor=#ffffff;dashed=0;verticalLabelPosition=bottom;verticalAlign=top;align=center;html=1;fontSize=12;fontStyle=0;aspect=fixed;shape=mxgraph.aws4.resourceIcon;resIcon=mxgraph.aws4.ecr;" vertex="1" parent="5k9xJVUffgjyR4wzuvEV-116">
          <mxGeometry x="655.2129610389612" width="55.545454545454554" height="55.545454545454554" as="geometry" />
        </mxCell>
        <mxCell id="5k9xJVUffgjyR4wzuvEV-87" value="" style="edgeStyle=orthogonalEdgeStyle;rounded=0;orthogonalLoop=1;jettySize=auto;html=1;startArrow=none;startFill=0;endArrow=open;endFill=0;strokeWidth=2;strokeColor=#808080;" edge="1" parent="5k9xJVUffgjyR4wzuvEV-116" target="5k9xJVUffgjyR4wzuvEV-98">
          <mxGeometry relative="1" as="geometry">
            <mxPoint x="394.33203463203466" y="218.29282407407413" as="sourcePoint" />
            <mxPoint x="434.5363636363637" y="218.29282407407413" as="targetPoint" />
          </mxGeometry>
        </mxCell>
        <mxCell id="5k9xJVUffgjyR4wzuvEV-89" value="" style="group" vertex="1" connectable="0" parent="5k9xJVUffgjyR4wzuvEV-116">
          <mxGeometry x="799.265316017316" y="165.40004629629632" width="89.30000000000001" height="99.64699074074075" as="geometry" />
        </mxCell>
        <mxCell id="5k9xJVUffgjyR4wzuvEV-90" value="" style="rounded=1;whiteSpace=wrap;html=1;" vertex="1" parent="5k9xJVUffgjyR4wzuvEV-89">
          <mxGeometry y="7.588458994708989" width="89.30000000000001" height="92.05853174603175" as="geometry" />
        </mxCell>
        <mxCell id="5k9xJVUffgjyR4wzuvEV-91" value="" style="image;sketch=0;aspect=fixed;html=1;points=[];align=center;fontSize=12;image=img/lib/mscae/Docker.svg;" vertex="1" parent="5k9xJVUffgjyR4wzuvEV-89">
          <mxGeometry x="11.842880952380952" width="22.431200021043775" height="18.393584017255897" as="geometry" />
        </mxCell>
        <mxCell id="5k9xJVUffgjyR4wzuvEV-92" value="Redis Cache" style="image;sketch=0;aspect=fixed;html=1;points=[];align=center;fontSize=12;image=img/lib/mscae/Cache_Redis_Product.svg;" vertex="1" parent="5k9xJVUffgjyR4wzuvEV-89">
          <mxGeometry x="28.46437499999997" y="37.04718915343907" width="26.91744002525253" height="22.610649621212126" as="geometry" />
        </mxCell>
        <mxCell id="5k9xJVUffgjyR4wzuvEV-101" value="Amazon EC2" style="sketch=0;points=[[0,0,0],[0.25,0,0],[0.5,0,0],[0.75,0,0],[1,0,0],[0,1,0],[0.25,1,0],[0.5,1,0],[0.75,1,0],[1,1,0],[0,0.25,0],[0,0.5,0],[0,0.75,0],[1,0.25,0],[1,0.5,0],[1,0.75,0]];outlineConnect=0;fontColor=#232F3E;fillColor=#ED7100;strokeColor=#ffffff;dashed=0;verticalLabelPosition=bottom;verticalAlign=top;align=center;html=1;fontSize=12;fontStyle=0;aspect=fixed;shape=mxgraph.aws4.resourceIcon;resIcon=mxgraph.aws4.ec2;" vertex="1" parent="5k9xJVUffgjyR4wzuvEV-116">
          <mxGeometry x="287.63593073593074" y="69.79166666666667" width="55.545454545454554" height="55.545454545454554" as="geometry" />
        </mxCell>
        <mxCell id="5k9xJVUffgjyR4wzuvEV-102" value="" style="endArrow=classic;html=1;rounded=0;exitX=1;exitY=0.5;exitDx=0;exitDy=0;exitPerimeter=0;" edge="1" parent="5k9xJVUffgjyR4wzuvEV-116">
          <mxGeometry width="50" height="50" relative="1" as="geometry">
            <mxPoint x="247.81818181818187" y="219.06828703703712" as="sourcePoint" />
            <mxPoint x="334.02554112554145" y="218.1885200143468" as="targetPoint" />
          </mxGeometry>
        </mxCell>
        <mxCell id="5k9xJVUffgjyR4wzuvEV-103" value="" style="edgeStyle=orthogonalEdgeStyle;rounded=0;orthogonalLoop=1;jettySize=auto;html=1;startArrow=none;startFill=0;endArrow=open;endFill=0;strokeWidth=2;strokeColor=#808080;entryX=0;entryY=0.5;entryDx=0;entryDy=0;" edge="1" parent="5k9xJVUffgjyR4wzuvEV-116" source="5k9xJVUffgjyR4wzuvEV-98" target="5k9xJVUffgjyR4wzuvEV-90">
          <mxGeometry relative="1" as="geometry">
            <mxPoint x="656.3727012987013" y="322.2901620370371" as="sourcePoint" />
            <mxPoint x="727.5034372294373" y="323.45335648148153" as="targetPoint" />
          </mxGeometry>
        </mxCell>
        <mxCell id="5k9xJVUffgjyR4wzuvEV-105" value="" style="endArrow=none;dashed=1;html=1;dashPattern=1 3;strokeWidth=2;rounded=0;exitX=0.5;exitY=0;exitDx=0;exitDy=0;entryX=0.5;entryY=1;entryDx=0;entryDy=0;entryPerimeter=0;" edge="1" parent="5k9xJVUffgjyR4wzuvEV-116" source="5k9xJVUffgjyR4wzuvEV-98" target="5k9xJVUffgjyR4wzuvEV-86">
          <mxGeometry width="50" height="50" relative="1" as="geometry">
            <mxPoint x="594.9064675324676" y="178.35648148148155" as="sourcePoint" />
            <mxPoint x="683.4333073593074" y="114.76851851851856" as="targetPoint" />
          </mxGeometry>
        </mxCell>
        <mxCell id="5k9xJVUffgjyR4wzuvEV-100" value="" style="image;sketch=0;aspect=fixed;html=1;points=[];align=center;fontSize=12;image=img/lib/mscae/Docker.svg;" vertex="1" parent="5k9xJVUffgjyR4wzuvEV-116">
          <mxGeometry x="653.0573168418883" y="170.60185185185188" width="21.36304763908931" height="17.517699064053232" as="geometry" />
        </mxCell>
        <mxCell id="5k9xJVUffgjyR4wzuvEV-108" value="" style="rounded=1;whiteSpace=wrap;html=1;" vertex="1" parent="5k9xJVUffgjyR4wzuvEV-116">
          <mxGeometry x="487.09131601731593" y="176.1006373948691" width="85.04761904761905" height="88.95260334587174" as="geometry" />
        </mxCell>
        <mxCell id="5k9xJVUffgjyR4wzuvEV-110" value="Amazon ECR" style="sketch=0;points=[[0,0,0],[0.25,0,0],[0.5,0,0],[0.75,0,0],[1,0,0],[0,1,0],[0.25,1,0],[0.5,1,0],[0.75,1,0],[1,1,0],[0,0.25,0],[0,0.5,0],[0,0.75,0],[1,0.25,0],[1,0.5,0],[1,0.75,0]];outlineConnect=0;fontColor=#232F3E;fillColor=#ED7100;strokeColor=#ffffff;dashed=0;verticalLabelPosition=bottom;verticalAlign=top;align=center;html=1;fontSize=12;fontStyle=0;aspect=fixed;shape=mxgraph.aws4.resourceIcon;resIcon=mxgraph.aws4.ecr;" vertex="1" parent="5k9xJVUffgjyR4wzuvEV-116">
          <mxGeometry x="501.39477922077936" y="1.3958333333333333" width="55.545454545454554" height="55.545454545454554" as="geometry" />
        </mxCell>
        <mxCell id="5k9xJVUffgjyR4wzuvEV-111" value="" style="endArrow=none;dashed=1;html=1;dashPattern=1 3;strokeWidth=2;rounded=0;exitX=0.5;exitY=0;exitDx=0;exitDy=0;entryX=0.5;entryY=1;entryDx=0;entryDy=0;entryPerimeter=0;" edge="1" parent="5k9xJVUffgjyR4wzuvEV-116" source="5k9xJVUffgjyR4wzuvEV-108" target="5k9xJVUffgjyR4wzuvEV-110">
          <mxGeometry width="50" height="50" relative="1" as="geometry">
            <mxPoint x="441.08828571428575" y="179.7523148148149" as="sourcePoint" />
            <mxPoint x="529.6151255411255" y="116.16435185185189" as="targetPoint" />
          </mxGeometry>
        </mxCell>
        <mxCell id="5k9xJVUffgjyR4wzuvEV-112" value="" style="image;sketch=0;aspect=fixed;html=1;points=[];align=center;fontSize=12;image=img/lib/mscae/Docker.svg;" vertex="1" parent="5k9xJVUffgjyR4wzuvEV-116">
          <mxGeometry x="499.2391350237065" y="171.99768518518522" width="21.36304763908931" height="17.517699064053232" as="geometry" />
        </mxCell>
        <mxCell id="5k9xJVUffgjyR4wzuvEV-113" value="NextJS" style="outlineConnect=0;dashed=0;verticalLabelPosition=bottom;verticalAlign=top;align=center;html=1;shape=mxgraph.aws3.android;fillColor=#205E00;gradientColor=none;" vertex="1" parent="5k9xJVUffgjyR4wzuvEV-116">
          <mxGeometry x="509.80472727272723" y="198.9434722222222" width="38.71945454545455" height="46.52777777777778" as="geometry" />
        </mxCell>
      </root>
    </mxGraphModel>
  </diagram>
</mxfile>
